<?xml version="1.0" encoding="utf-8"?>
<!-- Generator: Adobe Illustrator 23.0.1, SVG Export Plug-In . SVG Version: 6.00 Build 0)  -->
<svg version="1.1" id="Layer_1" xmlns="http://www.w3.org/2000/svg" xmlns:xlink="http://www.w3.org/1999/xlink" x="0px" y="0px"
	 viewBox="0 0 100 100" style="enable-background:new 0 0 100 100;" xml:space="preserve">
<style type="text/css">
	.st0{fill:#D3C1E7;}
	.st1{fill:#AE95CE;}
	.st2{fill:#FFFFFF;}
	.st3{fill:#9D85C1;}
	.st4{fill:#836AAA;}
</style>
<g>
	<g>
		<ellipse class="st0" cx="73.5" cy="61.3" rx="26.5" ry="26.5"/>
		<ellipse class="st1" cx="73.5" cy="61.3" rx="20.5" ry="20.5"/>
		<path class="st2" d="M84.6,61.4L84.6,61.4c-0.4-0.6-1-1-1.7-1.4c0.9-1,1.3-2.4,1.2-4c-0.1-0.9-0.3-1.6-0.7-2.3
			c-0.4-0.7-1-1.2-1.7-1.6c-0.6-0.4-1.3-0.6-2.1-0.8c-0.5-0.1-1-0.2-1.6-0.3v-3.3c0-0.5-0.4-0.9-0.9-0.9h-7c-0.5,0-0.9,0.4-0.9,0.9
			v3.2c-0.2,0-0.4,0-0.7,0l-3.5,0c0,0,0,0,0,0c-0.2,0-0.5,0.1-0.6,0.3c-0.2,0.2-0.3,0.4-0.3,0.6v2.7c0,0.5,0.4,0.9,0.9,0.9h1.8
			c0.4,0,0.5,0.1,0.5,0.3v11.1c0,0,0,0,0,0c0,0,0,0,0,0h-1.8c-0.4,0-0.8,0.3-0.9,0.8l-0.5,3c0,0.3,0,0.5,0.2,0.7
			c0.2,0.2,0.4,0.3,0.7,0.3h3.3c0.2,0,0.5,0,0.9,0v0v3.2c0,0.5,0.4,0.9,0.9,0.9h7c0.5,0,0.9-0.4,0.9-0.9v-3.3c0.6,0,1.1-0.1,1.6-0.2
			c0.8-0.1,1.5-0.3,2.2-0.6c0.7-0.3,1.3-0.7,1.8-1.1c0.5-0.5,0.9-1,1.3-1.7c0.3-0.7,0.5-1.5,0.6-2.3C85.7,63.8,85.4,62.4,84.6,61.4z
			"/>
		<path class="st3" d="M100,61.3c0-14.6-11.9-26.5-26.5-26.5v53C88.1,87.8,100,75.9,100,61.3z"/>
		<path class="st4" d="M94,61.3c0-11.3-9.2-20.5-20.5-20.5v41.1C84.8,81.8,94,72.6,94,61.3z"/>
		<path class="st0" d="M84.6,61.4c-0.4-0.6-1-1-1.7-1.4c0.9-1,1.3-2.4,1.2-4c-0.1-0.9-0.3-1.6-0.7-2.3c-0.4-0.7-1-1.2-1.7-1.6
			c-0.6-0.4-1.3-0.6-2.1-0.8c-0.5-0.1-1-0.2-1.6-0.3v-3.3c0-0.5-0.4-0.9-0.9-0.9h-3.6v29h3.6c0.5,0,0.9-0.4,0.9-0.9v-3.3
			c0.6,0,1.1-0.1,1.6-0.2c0.8-0.1,1.5-0.3,2.2-0.6c0.7-0.3,1.3-0.7,1.8-1.1c0.5-0.5,0.9-1,1.3-1.7c0.3-0.7,0.5-1.5,0.6-2.3
			C85.7,63.8,85.4,62.4,84.6,61.4L84.6,61.4z"/>
	</g>
	<g>
		<ellipse class="st0" cx="17.3" cy="82.7" rx="17.3" ry="17.3"/>
		<ellipse class="st1" cx="17.3" cy="82.7" rx="13.4" ry="13.4"/>
		<path class="st2" d="M24.6,82.7L24.6,82.7c-0.3-0.4-0.7-0.7-1.1-0.9c0.6-0.7,0.9-1.5,0.8-2.6c-0.1-0.6-0.2-1.1-0.5-1.5
			c-0.3-0.4-0.6-0.8-1.1-1c-0.4-0.2-0.9-0.4-1.4-0.5c-0.3-0.1-0.7-0.1-1-0.2v-2.2c0-0.3-0.3-0.6-0.6-0.6h-4.6
			c-0.3,0-0.6,0.3-0.6,0.6v2.1c-0.1,0-0.3,0-0.4,0l-2.3,0c0,0,0,0,0,0c-0.2,0-0.3,0.1-0.4,0.2c-0.1,0.1-0.2,0.3-0.2,0.4v1.7
			c0,0.3,0.3,0.6,0.6,0.6H13c0.3,0,0.3,0.1,0.4,0.2v7.2c0,0,0,0,0,0c0,0,0,0,0,0h-1.2c-0.3,0-0.5,0.2-0.6,0.5l-0.3,1.9
			c0,0.2,0,0.4,0.1,0.5c0.1,0.1,0.3,0.2,0.5,0.2h2.1c0.1,0,0.3,0,0.6,0v0v2.1c0,0.3,0.3,0.6,0.6,0.6h4.6c0.3,0,0.6-0.3,0.6-0.6v-2.2
			c0.4,0,0.7-0.1,1.1-0.1c0.5-0.1,1-0.2,1.4-0.4c0.5-0.2,0.9-0.4,1.2-0.7c0.3-0.3,0.6-0.7,0.8-1.1c0.2-0.4,0.3-1,0.4-1.5
			C25.3,84.3,25.1,83.4,24.6,82.7z"/>
		<path class="st3" d="M34.6,82.7c0-9.6-7.8-17.3-17.3-17.3V100C26.9,100,34.6,92.2,34.6,82.7z"/>
		<path class="st4" d="M30.7,82.7c0-7.4-6-13.4-13.4-13.4v26.8C24.7,96.1,30.7,90.1,30.7,82.7z"/>
		<path class="st0" d="M24.6,82.7c-0.3-0.4-0.7-0.7-1.1-0.9c0.6-0.7,0.9-1.5,0.8-2.6c-0.1-0.6-0.2-1.1-0.5-1.5
			c-0.3-0.4-0.6-0.8-1.1-1c-0.4-0.2-0.9-0.4-1.4-0.5c-0.3-0.1-0.7-0.1-1-0.2v-2.2c0-0.3-0.3-0.6-0.6-0.6h-2.3v18.9h2.3
			c0.3,0,0.6-0.3,0.6-0.6v-2.2c0.4,0,0.7-0.1,1.1-0.1c0.5-0.1,1-0.2,1.4-0.4c0.5-0.2,0.9-0.4,1.2-0.7c0.3-0.3,0.6-0.7,0.8-1.1
			c0.2-0.4,0.3-1,0.4-1.5C25.3,84.3,25.1,83.4,24.6,82.7L24.6,82.7z"/>
	</g>
	<g>
		<ellipse class="st0" cx="47.9" cy="34.5" rx="34.5" ry="34.5"/>
		<ellipse class="st1" cx="47.9" cy="34.5" rx="26.7" ry="26.7"/>
		<path class="st2" d="M62.3,34.6L62.3,34.6c-0.6-0.7-1.3-1.3-2.2-1.8c1.2-1.3,1.7-3.1,1.5-5.2c-0.1-1.1-0.4-2.1-1-3
			c-0.5-0.9-1.3-1.5-2.2-2.1c-0.8-0.5-1.7-0.8-2.7-1.1c-0.6-0.2-1.3-0.3-2.1-0.4v-4.3c0-0.7-0.5-1.2-1.2-1.2h-9.1
			c-0.7,0-1.2,0.5-1.2,1.2V21c-0.3,0-0.5,0-0.9,0l-4.5,0c0,0,0,0,0,0c-0.3,0-0.6,0.1-0.8,0.3c-0.2,0.2-0.3,0.5-0.3,0.8v3.5
			c0,0.7,0.5,1.2,1.2,1.2h2.4c0.5,0,0.6,0.1,0.7,0.4v14.4c0,0,0,0,0,0c0,0,0,0,0,0h-2.4c-0.6,0-1.1,0.4-1.2,1l-0.7,3.9
			c-0.1,0.3,0,0.7,0.3,1c0.2,0.3,0.6,0.4,0.9,0.4h4.2c0.3,0,0.6,0,1.1,0v0v4.2c0,0.7,0.5,1.2,1.2,1.2h9.1c0.7,0,1.2-0.5,1.2-1.2
			v-4.3c0.8-0.1,1.5-0.2,2.1-0.3c1-0.2,1.9-0.4,2.8-0.8c0.9-0.4,1.8-0.9,2.4-1.5c0.7-0.6,1.2-1.4,1.6-2.3c0.4-0.9,0.7-1.9,0.8-3
			C63.7,37.7,63.3,35.9,62.3,34.6z"/>
		<path class="st3" d="M82.3,34.5C82.3,15.4,66.9,0,47.9,0v69C66.9,69,82.3,53.5,82.3,34.5z"/>
		<path class="st4" d="M74.6,34.5c0-14.7-11.9-26.7-26.7-26.7v53.4C62.6,61.2,74.6,49.2,74.6,34.5z"/>
		<path class="st0" d="M62.3,34.6c-0.6-0.7-1.3-1.3-2.2-1.8c1.2-1.3,1.7-3.1,1.5-5.2c-0.1-1.1-0.4-2.1-1-3c-0.5-0.9-1.3-1.5-2.2-2.1
			c-0.8-0.5-1.7-0.8-2.7-1.1c-0.6-0.2-1.3-0.3-2.1-0.4v-4.3c0-0.7-0.5-1.2-1.2-1.2h-4.7v37.7h4.7c0.7,0,1.2-0.5,1.2-1.2v-4.3
			c0.8-0.1,1.5-0.1,2.1-0.3c1-0.2,1.9-0.4,2.8-0.8c0.9-0.4,1.8-0.9,2.4-1.5c0.7-0.6,1.2-1.4,1.6-2.3c0.4-0.9,0.7-1.9,0.8-3
			C63.7,37.7,63.3,35.9,62.3,34.6L62.3,34.6z"/>
	</g>
</g>
</svg>
