<?xml version="1.0" encoding="utf-8"?>
<!-- Generator: Adobe Illustrator 23.0.1, SVG Export Plug-In . SVG Version: 6.00 Build 0)  -->
<svg version="1.1" id="Layer_1" xmlns="http://www.w3.org/2000/svg" xmlns:xlink="http://www.w3.org/1999/xlink" x="0px" y="0px"
	 viewBox="0 0 72 58" style="enable-background:new 0 0 72 58;" xml:space="preserve">
<style type="text/css">
	.st0{fill:#705A9B;}
	.st1{fill:#AE95CE;}
	.st2{fill:#9D85C1;}
</style>
<g>
	<path class="st0" d="M71.9,55.6L68,46.9c-0.5-1.3-1.5-2-2.6-2l-57.4,0c-1.7,0-2.5,0.8-3.2,2l-4.7,8.5c-0.3,0.6-0.3,1.3,0,1.8
		c0.4,0.5,1,0.8,1.6,0.8H70c0.9,0,1.7-0.6,1.9-1.5C72,56.2,72,55.9,71.9,55.6z"/>
	<path class="st1" d="M2.9,33.6c0.2,1.3,1.4,2.2,2.7,2l4.6-0.7c1.1-0.2,1.3,0.1,1.5,0.5L15.2,58h46.5c0.3-1.4,0.4-3,0.3-4.6
		c-0.3-4.5-1.6-7.9-4-10.2v0c-1.4-1.3-3-2.3-4.9-2.9c2-2.9,2.5-6.6,1.4-10.7c-0.5-2.2-1.5-4-2.8-5.5c-1-1.1-2.2-2.1-3.5-2.8
		c-0.4-0.2-0.9-0.4-1.4-0.6c-1.8-0.7-3.6-1.1-5.6-1.3c-1.3-0.1-2.7-0.2-4.2-0.1l-1.3-8.4c-0.2-1.3-1.4-2.2-2.7-2l-17.9,2.7
		c-1.3,0.2-2.2,1.4-2,2.7l1.3,8.2c-0.5,0.1-1.1,0.2-1.7,0.3L3.8,24c0,0,0,0,0,0c-0.6,0.1-1.2,0.4-1.5,0.9c-0.4,0.5-0.5,1.1-0.4,1.8
		L2.9,33.6z"/>
	<path class="st2" d="M61.6,58c0.3-1.4,0.4-3,0.3-4.6c-0.3-4.5-1.6-7.9-4-10.2l0,0c-1.4-1.3-3-2.3-4.9-2.9c2-2.9,2.5-6.6,1.4-10.7
		c-0.5-2.2-1.5-4-2.8-5.5c-1-1.1-2.2-2.1-3.5-2.8c-0.4-0.2-0.9-0.4-1.4-0.6c-1.8-0.7-3.6-1.1-5.6-1.3c-1.3-0.1-2.7-0.2-4.2-0.1
		l-1.3-8.4c-0.2-1.3-1.4-2.2-2.7-2l-8.8,1.4L31.5,58H61.6z"/>
	<path class="st2" d="M60.5,22c-1.8,0-3.2-1.4-3.2-3.2v-3.4c0-0.7-0.5-1.2-1.2-1.2h-3.4c-1.8,0-3.2-1.4-3.2-3.2s1.4-3.2,3.2-3.2h3.4
		c0.7,0,1.2-0.5,1.2-1.2V3.2c0-1.8,1.4-3.2,3.2-3.2s3.2,1.4,3.2,3.2v3.4c0,0.7,0.5,1.2,1.2,1.2h3.4c1.8,0,3.2,1.4,3.2,3.2
		s-1.4,3.2-3.2,3.2H65c-0.7,0-1.2,0.5-1.2,1.2v3.4C63.7,20.6,62.3,22,60.5,22z"/>
</g>
</svg>
