<?xml version="1.0" encoding="utf-8"?>
<!-- Generator: Adobe Illustrator 23.0.1, SVG Export Plug-In . SVG Version: 6.00 Build 0)  -->
<svg version="1.1" id="Layer_1" xmlns="http://www.w3.org/2000/svg" xmlns:xlink="http://www.w3.org/1999/xlink" x="0px" y="0px"
	 viewBox="0 0 100 98" style="enable-background:new 0 0 100 98;" xml:space="preserve">
<style type="text/css">
	.st0{fill:#D3C1E7;}
	.st1{fill:#836AAA;}
	.st2{clip-path:url(#SVGID_2_);fill:#FFFFFF;}
	.st3{clip-path:url(#SVGID_2_);fill:#9D85C1;}
	.st4{clip-path:url(#SVGID_4_);fill:#FFFFFF;}
	.st5{clip-path:url(#SVGID_4_);fill:#9D85C1;}
	.st6{fill:#9D85C1;}
	.st7{clip-path:url(#SVGID_6_);fill:#FFFFFF;}
	.st8{clip-path:url(#SVGID_6_);fill:#9D85C1;}
</style>
<g>
	<path class="st0" d="M45.7,56.9c-0.1-0.1-0.1-0.1-0.2-0.1c-0.1,0-0.1-0.1-0.2-0.1L25.6,45.3c-0.6-0.4-1.3-0.5-2-0.5c0,0,0,0,0,0v0
		c0,0,0,0,0,0c-0.7,0-1.4,0.2-2,0.5L2,56.7c-1.2,0.7-2,2-2,3.4l0,22.6c0,1.4,0.8,2.7,2,3.4l19.7,11.3c0.6,0.4,1.3,0.5,2,0.5
		c0,0,0,0,0,0v0c0,0,0,0,0,0c0.7,0,1.4-0.2,2-0.5l19.7-11.3c1.2-0.7,2-2,2-3.4l0-22.6C47.3,58.9,46.7,57.7,45.7,56.9z"/>
	<path class="st0" d="M72.2,12.2c-0.1-0.1-0.1-0.1-0.2-0.1c-0.1,0-0.1-0.1-0.2-0.1L51.9,0.5C51.3,0.2,50.6,0,50,0c0,0,0,0,0,0v0
		c0,0,0,0,0,0c-0.7,0-1.4,0.2-2,0.5L28.1,11.9c-1.2,0.7-2,2-2,3.5l0,22.8c0,1.4,0.8,2.8,2,3.5l19.8,11.4c0.6,0.4,1.3,0.5,2,0.5
		c0,0,0,0,0,0v0c0,0,0,0,0,0c0.7,0,1.4-0.2,2-0.5l19.8-11.4c1.2-0.7,2-2,2-3.5l0-22.8C73.8,14.2,73.2,13,72.2,12.2z"/>
	<path class="st1" d="M66.5,16c0,0-0.1-0.1-0.2-0.1c-0.1,0-0.1-0.1-0.2-0.1L51.4,7.3c-0.5-0.3-1-0.4-1.5-0.4c0,0,0,0,0,0v0
		c0,0,0,0,0,0c-0.5,0-1,0.1-1.5,0.4l-14.8,8.5c-0.9,0.5-1.5,1.5-1.5,2.6l0,17c0,1.1,0.6,2,1.5,2.6l14.8,8.5c0.5,0.3,1,0.4,1.5,0.4
		c0,0,0,0,0,0v0c0,0,0,0,0,0c0.5,0,1-0.1,1.5-0.4l14.8-8.5c0.9-0.5,1.5-1.5,1.5-2.6l0-17C67.7,17.4,67.2,16.5,66.5,16z"/>
	<g>
		<defs>
			<path id="SVGID_1_" d="M66.5,16c0,0-0.1-0.1-0.2-0.1c-0.1,0-0.1-0.1-0.2-0.1L51.4,7.3c-0.5-0.3-1-0.4-1.5-0.4c0,0,0,0,0,0v0
				c0,0,0,0,0,0c-0.5,0-1,0.1-1.5,0.4l-14.8,8.5c-0.9,0.5-1.5,1.5-1.5,2.6l0,17c0,1.1,0.6,2,1.5,2.6l14.8,8.5c0.5,0.3,1,0.4,1.5,0.4
				c0,0,0,0,0,0v0c0,0,0,0,0,0c0.5,0,1-0.1,1.5-0.4l14.8-8.5c0.9-0.5,1.5-1.5,1.5-2.6l0-17C67.7,17.4,67.2,16.5,66.5,16z"/>
		</defs>
		<clipPath id="SVGID_2_">
			<use xlink:href="#SVGID_1_"  style="overflow:visible;"/>
		</clipPath>
		<path class="st2" d="M49.9,15.3c-0.9,0-1.9,0.2-2.7,0.8c-1.5,1-2.2,2.7-2,4.9c-0.5,0.2-0.9,0.7-0.9,1.2V24c0,0.6,0.4,1.1,0.9,1.2
			v0.4c0,0,0,0,0,0.1c0.1,1,0.6,2.1,1.4,3c0,0,0,0,0,0c-0.2,0.7-0.7,1.3-1.3,1.7c-0.2,0.1-0.3,0.2-0.5,0.3c0,0,0-0.1,0-0.1
			c0,0,0,0,0,0c0,0,0,0-0.1-0.1c0,0,0,0-0.1,0c0,0,0,0-0.1,0c0,0,0,0-0.1,0c0,0,0,0-0.1,0c0,0-0.1,0-0.1,0c0,0,0,0,0,0
			c-4.3,1.3-6.9,4.7-7.4,9.8c0,0.2,0.1,0.4,0.3,0.4c0,0,0,0,0,0c0,0,0.1,0,0.1,0c0,0,0.1,0,0.1,0l12.3,7.8l0,0V15.3z"/>
		<path class="st3" d="M62.8,40.2C62.8,40.2,62.8,40.2,62.8,40.2c0-0.3-0.1-0.7-0.1-1c0-0.3-0.1-0.6-0.2-0.9
			c-0.2-1.2-0.6-2.2-1.1-3.2c-0.1-0.2-0.3-0.5-0.4-0.7c-1-1.5-2.3-2.7-4-3.5c-0.5-0.2-1-0.4-1.6-0.6c0,0,0,0,0,0c0,0,0,0,0,0
			c0,0,0,0-0.1,0c0,0,0,0,0,0h0c0,0,0,0-0.1,0c0,0,0,0-0.1,0c0,0,0,0-0.1,0c0,0,0,0-0.1,0c0,0,0,0,0,0c0,0,0,0,0,0c0,0,0,0,0,0
			c0,0,0,0,0,0c-1-0.4-1.5-1-1.8-1.9c0,0,0,0,0,0c0.3-0.3,0.5-0.7,0.7-1c0.1-0.1,0.1-0.2,0.2-0.4c0.2-0.5,0.4-1,0.5-1.6
			c0,0,0,0,0-0.1v-0.3c0.5-0.1,0.8-0.5,0.9-1c0-0.1,0-0.1,0-0.2v-1.8c0-0.1,0-0.1,0-0.2c-0.1-0.5-0.4-0.9-0.9-1
			c0.1-2.3-0.8-4.1-2.5-5c0,0,0,0,0,0c-0.2-0.1-0.3-0.2-0.5-0.2c0,0,0,0-0.1,0c-0.2-0.1-0.3-0.1-0.5-0.2c0,0,0,0-0.1,0
			c-0.2,0-0.3-0.1-0.5-0.1c0,0,0,0,0,0c-0.2,0-0.4,0-0.6,0v33l12.5-7.8h0c0,0,0,0,0,0c0,0,0,0,0.1,0c0,0,0,0,0.1,0c0,0,0,0,0.1,0
			c0,0,0,0,0.1,0c0,0,0,0,0-0.1c0,0,0,0,0,0c0,0,0,0,0,0c0,0,0,0,0,0C62.8,40.3,62.8,40.3,62.8,40.2C62.8,40.3,62.8,40.3,62.8,40.2
			C62.8,40.2,62.8,40.2,62.8,40.2C62.8,40.2,62.8,40.2,62.8,40.2z"/>
	</g>
	<path class="st1" d="M40.2,60.6c0,0-0.1-0.1-0.2-0.1c-0.1,0-0.1-0.1-0.2-0.1l-14.8-8.5c-0.5-0.3-1-0.4-1.5-0.4c0,0,0,0,0,0v0
		c0,0,0,0,0,0c-0.5,0-1,0.1-1.5,0.4L7.4,60.3c-0.9,0.5-1.5,1.5-1.5,2.6l0,17c0,1.1,0.6,2,1.5,2.6L22.1,91c0.5,0.3,1,0.4,1.5,0.4
		c0,0,0,0,0,0v0c0,0,0,0,0,0c0.5,0,1-0.1,1.5-0.4l14.8-8.5c0.9-0.5,1.5-1.5,1.5-2.6l0-17C41.4,62,40.9,61.1,40.2,60.6z"/>
	<g>
		<defs>
			<path id="SVGID_3_" d="M40.2,60.6c0,0-0.1-0.1-0.2-0.1c-0.1,0-0.1-0.1-0.2-0.1l-14.8-8.5c-0.5-0.3-1-0.4-1.5-0.4c0,0,0,0,0,0v0
				c0,0,0,0,0,0c-0.5,0-1,0.1-1.5,0.4L7.4,60.3c-0.9,0.5-1.5,1.5-1.5,2.6l0,17c0,1.1,0.6,2,1.5,2.6L22.1,91c0.5,0.3,1,0.4,1.5,0.4
				c0,0,0,0,0,0v0c0,0,0,0,0,0c0.5,0,1-0.1,1.5-0.4l14.8-8.5c0.9-0.5,1.5-1.5,1.5-2.6l0-17C41.4,62,40.9,61.1,40.2,60.6z"/>
		</defs>
		<clipPath id="SVGID_4_">
			<use xlink:href="#SVGID_3_"  style="overflow:visible;"/>
		</clipPath>
		<path class="st4" d="M23.6,59.9c-0.9,0-1.9,0.2-2.7,0.8c-1.5,1-2.2,2.7-2,4.9c-0.5,0.2-0.9,0.7-0.9,1.2v1.8c0,0.6,0.4,1.1,0.9,1.2
			v0.4c0,0,0,0,0,0.1c0.1,1,0.6,2.1,1.4,3c0,0,0,0,0,0C20.1,74,19.7,74.6,19,75c-0.2,0.1-0.3,0.2-0.5,0.3c0,0,0-0.1,0-0.1
			c0,0,0,0,0,0c0,0,0,0-0.1-0.1c0,0,0,0-0.1,0c0,0,0,0-0.1,0c0,0,0,0-0.1,0c0,0,0,0-0.1,0c0,0-0.1,0-0.1,0c0,0,0,0,0,0
			c-4.3,1.3-6.9,4.7-7.4,9.8c0,0.2,0.1,0.4,0.3,0.4c0,0,0,0,0,0c0,0,0.1,0,0.1,0c0,0,0.1,0,0.1,0L23.6,93l0,0V59.9z"/>
		<path class="st5" d="M36.5,84.8C36.5,84.8,36.5,84.8,36.5,84.8c0-0.3-0.1-0.7-0.1-1c0-0.3-0.1-0.6-0.2-0.9
			c-0.2-1.2-0.6-2.2-1.1-3.2c-0.1-0.2-0.3-0.5-0.4-0.7c-1-1.5-2.3-2.7-4-3.5c-0.5-0.2-1-0.4-1.6-0.6c0,0,0,0,0,0c0,0,0,0,0,0
			c0,0,0,0-0.1,0c0,0,0,0,0,0h0c0,0,0,0-0.1,0c0,0,0,0-0.1,0c0,0,0,0-0.1,0c0,0,0,0-0.1,0c0,0,0,0,0,0c0,0,0,0,0,0c0,0,0,0,0,0
			c0,0,0,0,0,0c-1-0.4-1.5-1-1.8-1.9l0,0c0.3-0.3,0.5-0.7,0.7-1c0.1-0.1,0.1-0.2,0.2-0.4c0.2-0.5,0.4-1,0.5-1.6c0,0,0,0,0-0.1v-0.3
			c0.5-0.1,0.8-0.5,0.9-1c0-0.1,0-0.1,0-0.2v-1.8c0-0.1,0-0.1,0-0.2c-0.1-0.5-0.4-0.9-0.9-1c0.1-2.3-0.8-4.1-2.5-5c0,0,0,0,0,0
			c-0.2-0.1-0.3-0.2-0.5-0.2c0,0,0,0-0.1,0c-0.2-0.1-0.3-0.1-0.5-0.2c0,0,0,0-0.1,0c-0.2,0-0.3-0.1-0.5-0.1c0,0,0,0,0,0
			c-0.2,0-0.4,0-0.6,0v33l12.5-7.8h0c0,0,0,0,0,0c0,0,0,0,0.1,0c0,0,0,0,0.1,0c0,0,0,0,0.1,0c0,0,0,0,0.1,0c0,0,0,0,0-0.1
			c0,0,0,0,0,0c0,0,0,0,0,0c0,0,0,0,0,0C36.5,84.9,36.5,84.9,36.5,84.8C36.5,84.9,36.5,84.9,36.5,84.8
			C36.5,84.8,36.5,84.8,36.5,84.8C36.5,84.8,36.5,84.8,36.5,84.8z"/>
	</g>
	<path class="st0" d="M98.4,56.9c-0.1-0.1-0.1-0.1-0.2-0.1c-0.1,0-0.1-0.1-0.2-0.1L78.3,45.3c-0.6-0.4-1.3-0.5-2-0.5c0,0,0,0,0,0v0
		c0,0,0,0,0,0c-0.7,0-1.4,0.2-2,0.5L54.7,56.7c-1.2,0.7-2,2-2,3.4l0,22.6c0,1.4,0.8,2.7,2,3.4l19.7,11.3c0.6,0.4,1.3,0.5,2,0.5
		c0,0,0,0,0,0v0c0,0,0,0,0,0c0.7,0,1.4-0.2,2-0.5L98,86.2c1.2-0.7,2-2,2-3.4l0-22.6C100,58.9,99.4,57.7,98.4,56.9z"/>
	<path class="st1" d="M92.9,60.6c0,0-0.1-0.1-0.2-0.1c-0.1,0-0.1-0.1-0.2-0.1l-14.8-8.5c-0.5-0.3-1-0.4-1.5-0.4c0,0,0,0,0,0v0
		c0,0,0,0,0,0c-0.5,0-1,0.1-1.5,0.4l-14.8,8.5c-0.9,0.5-1.5,1.5-1.5,2.6l0,17c0,1.1,0.6,2,1.5,2.6L74.8,91c0.5,0.3,1,0.4,1.5,0.4
		c0,0,0,0,0,0v0c0,0,0,0,0,0c0.5,0,1-0.1,1.5-0.4l14.8-8.5c0.9-0.5,1.5-1.5,1.5-2.6l0-17C94.1,62,93.6,61.1,92.9,60.6z"/>
	<path class="st0" d="M64.8,45.2c0,0-0.1-0.1-0.1-0.1c0,0-0.1-0.1-0.1-0.1l-13.2-7.6c-0.4-0.2-0.9-0.4-1.3-0.4c0,0,0,0,0,0v0
		c0,0,0,0,0,0c-0.5,0-0.9,0.1-1.3,0.4l-13.2,7.6c-0.8,0.5-1.3,1.4-1.3,2.3l0,15.2c0,1,0.5,1.8,1.3,2.3l13.2,7.6
		c0.4,0.2,0.9,0.4,1.3,0.4c0,0,0,0,0,0v0c0,0,0,0,0,0c0.5,0,0.9-0.1,1.3-0.4l13.2-7.6c0.8-0.5,1.3-1.4,1.3-2.3l0-15.2
		C65.9,46.5,65.5,45.7,64.8,45.2z"/>
	<path class="st6" d="M60.9,47.8c0,0-0.1-0.1-0.1-0.1c0,0-0.1,0-0.1-0.1L50.9,42c-0.3-0.2-0.6-0.3-1-0.3c0,0,0,0,0,0v0c0,0,0,0,0,0
		c-0.3,0-0.7,0.1-1,0.3l-9.8,5.6c-0.6,0.4-1,1-1,1.7l0,11.3c0,0.7,0.4,1.4,1,1.7l9.8,5.6c0.3,0.2,0.6,0.3,1,0.3c0,0,0,0,0,0v0
		c0,0,0,0,0,0c0.3,0,0.7-0.1,1-0.3l9.8-5.6c0.6-0.4,1-1,1-1.7l0-11.3C61.7,48.7,61.4,48.2,60.9,47.8z"/>
	<g>
		<defs>
			<path id="SVGID_5_" d="M92.9,60.6c0,0-0.1-0.1-0.2-0.1c-0.1,0-0.1-0.1-0.2-0.1l-14.8-8.5c-0.5-0.3-1-0.4-1.5-0.4c0,0,0,0,0,0v0
				c0,0,0,0,0,0c-0.5,0-1,0.1-1.5,0.4l-14.8,8.5c-0.9,0.5-1.5,1.5-1.5,2.6l0,17c0,1.1,0.6,2,1.5,2.6L74.8,91c0.5,0.3,1,0.4,1.5,0.4
				c0,0,0,0,0,0v0c0,0,0,0,0,0c0.5,0,1-0.1,1.5-0.4l14.8-8.5c0.9-0.5,1.5-1.5,1.5-2.6l0-17C94.1,62,93.6,61.1,92.9,60.6z"/>
		</defs>
		<clipPath id="SVGID_6_">
			<use xlink:href="#SVGID_5_"  style="overflow:visible;"/>
		</clipPath>
		<path class="st7" d="M76.3,59.9c-0.9,0-1.9,0.2-2.7,0.8c-1.5,1-2.2,2.7-2,4.9c-0.5,0.2-0.9,0.7-0.9,1.2v1.8c0,0.6,0.4,1.1,0.9,1.2
			v0.4c0,0,0,0,0,0.1c0.1,1,0.6,2.1,1.4,3c0,0,0,0,0,0c-0.2,0.7-0.7,1.3-1.3,1.7c-0.2,0.1-0.3,0.2-0.5,0.3c0,0,0-0.1,0-0.1
			c0,0,0,0,0,0c0,0,0,0-0.1-0.1c0,0,0,0-0.1,0c0,0,0,0-0.1,0c0,0,0,0-0.1,0c0,0,0,0-0.1,0c0,0-0.1,0-0.1,0c0,0,0,0,0,0
			c-4.3,1.3-6.9,4.7-7.4,9.8c0,0.2,0.1,0.4,0.3,0.4c0,0,0,0,0,0c0,0,0.1,0,0.1,0c0,0,0.1,0,0.1,0L76.3,93l0,0V59.9z"/>
		<path class="st8" d="M89.2,84.8C89.2,84.8,89.2,84.8,89.2,84.8c0-0.3-0.1-0.7-0.1-1c0-0.3-0.1-0.6-0.2-0.9
			c-0.2-1.2-0.6-2.2-1.1-3.2c-0.1-0.2-0.3-0.5-0.4-0.7c-1-1.5-2.3-2.7-4-3.5c-0.5-0.2-1-0.4-1.6-0.6c0,0,0,0,0,0c0,0,0,0,0,0
			c0,0,0,0-0.1,0c0,0,0,0,0,0h0c0,0,0,0-0.1,0c0,0,0,0-0.1,0c0,0,0,0-0.1,0c0,0,0,0-0.1,0c0,0,0,0,0,0c0,0,0,0,0,0c0,0,0,0,0,0
			c0,0,0,0,0,0c-1-0.4-1.5-1-1.8-1.9c0,0,0,0,0,0c0.3-0.3,0.5-0.7,0.7-1c0.1-0.1,0.1-0.2,0.2-0.4c0.2-0.5,0.4-1,0.5-1.6
			c0,0,0,0,0-0.1v-0.3c0.5-0.1,0.8-0.5,0.9-1c0-0.1,0-0.1,0-0.2v-1.8c0-0.1,0-0.1,0-0.2c-0.1-0.5-0.4-0.9-0.9-1
			c0.1-2.3-0.8-4.1-2.5-5c0,0,0,0,0,0c-0.2-0.1-0.3-0.2-0.5-0.2c0,0,0,0-0.1,0c-0.2-0.1-0.3-0.1-0.5-0.2c0,0,0,0-0.1,0
			c-0.2,0-0.3-0.1-0.5-0.1c0,0,0,0,0,0c-0.2,0-0.4,0-0.6,0v33l12.5-7.8h0c0,0,0,0,0,0c0,0,0,0,0.1,0c0,0,0,0,0.1,0c0,0,0,0,0.1,0
			c0,0,0,0,0.1,0c0,0,0,0,0-0.1c0,0,0,0,0,0c0,0,0,0,0,0c0,0,0,0,0,0C89.2,84.9,89.2,84.9,89.2,84.8C89.2,84.9,89.2,84.9,89.2,84.8
			C89.2,84.8,89.2,84.8,89.2,84.8C89.2,84.8,89.2,84.8,89.2,84.8z"/>
	</g>
	<path class="st0" d="M55.4,50.1c-0.6-0.4-1.4-0.3-1.8,0.3l-4.4,6.3l-3-3.6c-0.4-0.5-1.3-0.6-1.8-0.2c-0.5,0.4-0.6,1.3-0.2,1.8
		l4,4.9c0,0,0,0,0,0c0,0,0.1,0.1,0.1,0.1c0,0,0.1,0.1,0.1,0.1c0,0,0,0,0,0c0,0,0.1,0,0.1,0c0,0,0.1,0,0.1,0.1c0,0,0.1,0,0.1,0.1
		c0,0,0.1,0,0.1,0c0,0,0.1,0,0.1,0c0,0,0.1,0,0.1,0c0,0,0.1,0,0.1,0c0,0,0.1,0,0.1,0c0,0,0.1,0,0.1,0c0,0,0.1,0,0.1,0
		c0,0,0.1,0,0.1,0c0,0,0.1,0,0.1-0.1c0,0,0.1,0,0.1-0.1c0,0,0,0,0.1,0c0,0,0,0,0,0c0,0,0.1-0.1,0.1-0.1c0,0,0.1-0.1,0.1-0.1
		c0,0,0,0,0,0l5.4-7.7C56.1,51.3,56,50.5,55.4,50.1z"/>
</g>
</svg>
