<svg enable-background="new 0 0 72 64" viewBox="0 0 72 64" xmlns="http://www.w3.org/2000/svg"><path d="m72 32c0-.9-.2-1.9-.7-2.7l-15.3-26.6c-1-1.7-2.8-2.7-4.7-2.7h-30.6c-1.9 0-3.7 1-4.7 2.7 0 0-.6 1-.6 1.1-.7 1.2-.4 2.2.3 3.4l1.8 3.1 2.3 4c.2.3.2.6.2.9s-.1.6-.2.9l-5.2 9s0 .1-.1.1c0 0 0 .1-.1.1-.3.4-.9.7-1.4.7h-6.6c-.9 0-1.8-.1-2.7 0-.4.1-.9.3-1.2.5-.9.7-1.3 1.7-1.9 2.6-.4 1-.6 2-.6 2.9s.2 1.9.7 2.7l15.3 26.6c1 1.7 2.7 2.7 4.7 2.7h30.6c1.7 0 3.3-.8 4.3-2.1.1-.1.1-.2.2-.3s.1-.2.2-.3l15.3-26.6c.5-.8.7-1.8.7-2.7z" fill="#9d85c1"/><path d="m9.4 10.6c-.9.3-1.5 1.3-1.2 2.2l.4 1.2-5.6-3.3c-.9-.5-1.9-.2-2.4.7s-.2 1.9.7 2.4l5.5 3.3-1.2.3c-1 .2-1.6 1.2-1.3 2.1.2 1 1.2 1.6 2.1 1.3l5.6-1.3h.1s.1 0 .1-.1h.1c.1 0 .1-.1.2-.1h.1c.1 0 .1-.1.2-.1l.1-.1c.1-.1.1-.2.2-.3.1-.1.1-.2.1-.3v-.1c0-.1 0-.1 0-.2v-.1c0-.1 0-.1 0-.2v-.1-.1s0 0 0-.1l-1.7-5.5c-.1-1.2-1.1-1.7-2.1-1.5z" fill="#836aaa"/><path d="m20.7 64h30.6c1.7 0 3.3-.8 4.3-2.1.1-.1.1-.2.2-.3s.1-.2.2-.3l15.3-26.6c.5-.8.7-1.8.7-2.7s-.2-1.9-.7-2.7l-15.3-26.6c-.5-.8-1.1-1.5-1.9-1.9l-36.1 62.5c.8.4 1.7.7 2.7.7z" fill="#705a9b"/><path d="m50.5 32.1c-.6-.7-1.3-1.3-2.2-1.8 1.2-1.3 1.7-3.1 1.5-5.2-.1-1.1-.4-2.1-.9-2.9s-1.3-1.5-2.2-2c-.8-.5-1.7-.8-2.7-1.1-.6-.2-1.3-.3-2.1-.4v-4.3c0-.7-.5-1.2-1.2-1.2h-9.1c-.7 0-1.2.5-1.2 1.2v4.2c-.3 0-.5 0-.9 0h-4.5c-.3 0-.6.1-.8.3s-.3.5-.3.8v3.5c0 .7.5 1.2 1.2 1.2h2.3c.5 0 .6.1.7.4v14.3h-2.3c-.6 0-1.1.4-1.2 1l-.6 3.9c-.1.3 0 .7.3 1 .2.3.6.4.9.4h4.2 1.1v4.2c0 .7.5 1.2 1.2 1.2h9.1c.7 0 1.2-.5 1.2-1.2v-4.3c.8-.1 1.5-.1 2.1-.3 1-.2 1.9-.4 2.8-.8s1.7-.9 2.4-1.5 1.2-1.4 1.6-2.3.7-1.9.8-3c.2-2.2-.2-4-1.2-5.3z" fill="#ede5f4"/><path d="m50.5 32.1c-.6-.7-1.3-1.3-2.2-1.8 1.2-1.3 1.7-3.1 1.5-5.2-.1-1.1-.4-2.1-.9-2.9s-1.3-1.5-2.2-2c-.8-.5-1.7-.8-2.7-1.1-.6-.2-1.3-.3-2.1-.4v-4.3c0-.7-.5-1.2-1.2-1.2h-4.7v37.5h4.7c.7 0 1.2-.5 1.2-1.2v-4.3c.8-.1 1.5-.1 2.1-.3 1-.2 1.9-.4 2.8-.8s1.7-.9 2.4-1.5 1.2-1.4 1.6-2.3.7-1.9.8-3c.3-2.1-.1-3.9-1.1-5.2z" fill="#d3c1e7"/></svg>