<?xml version="1.0" encoding="utf-8"?>
<!-- Generator: Adobe Illustrator 23.0.1, SVG Export Plug-In . SVG Version: 6.00 Build 0)  -->
<svg version="1.1" id="Layer_1" xmlns="http://www.w3.org/2000/svg" xmlns:xlink="http://www.w3.org/1999/xlink" x="0px" y="0px"
	 viewBox="0 0 72 72" style="enable-background:new 0 0 72 72;" xml:space="preserve">
<style type="text/css">
	.st0{fill:#705A9B;}
	.st1{fill:#9D85C1;}
	.st2{fill:#AE95CE;}
	.st3{fill:#D3C1E7;}
</style>
<g>
	<path class="st0" d="M62.4,22.9c0-2.1-1.7-3.9-3.9-3.9H3.9C1.8,19,0,20.8,0,22.9l0,12.3c0-2.1,1.8-3.9,3.9-3.9h58.5L62.4,22.9z"/>
	<path class="st1" d="M68.1,72H3.9C1.8,72,0,70.3,0,68.1l0-35.9c0-2.1,1.7-3.9,3.9-3.9h64.2c2.1,0,3.9,1.7,3.9,3.9l0,35.9
		C72,70.3,70.3,72,68.1,72z"/>
	<path class="st2" d="M13.6,16.8h3.5c0.8,0,1,0.2,1,0.6v11h33.2c-0.8-1.1-1.9-2-3.3-2.7c1.8-1.9,2.6-4.6,2.2-7.7
		c-0.2-1.7-0.6-3.1-1.4-4.4c-0.8-1.3-1.9-2.3-3.2-3.1c-1.2-0.7-2.6-1.2-4-1.6c-0.9-0.2-2-0.4-3.1-0.6l0-6.5c0-1-0.8-1.8-1.8-1.8
		H23.4c-1,0-1.8,0.8-1.8,1.8l0,6.4c-0.4,0-0.8,0-1.3,0l-6.7,0c0,0,0,0,0,0c-0.5,0-0.9,0.2-1.2,0.5c-0.3,0.3-0.5,0.8-0.5,1.3V15
		C11.9,16,12.7,16.8,13.6,16.8z"/>
	<path class="st0" d="M72,41.8H51.8c-2.5,0-4.5,2-4.5,4.5v7.4c0,2.5,2,4.5,4.5,4.5H72V41.8z"/>
	<path class="st3" d="M54.8,53c1.7,0,3.1-1.4,3.1-3c0-1.7-1.4-3-3.1-3c-1.7,0-3.1,1.4-3.1,3C51.7,51.7,53.1,53,54.8,53z"/>
	<path class="st3" d="M40,42.2c0,0-0.1-0.1-0.1-0.1c0,0-0.1-0.1-0.1-0.1l-10.1-5.8c-0.3-0.2-0.7-0.3-1-0.3c0,0,0,0,0,0c0,0,0,0,0,0
		c-0.4,0-0.7,0.1-1,0.3L17.6,42c-0.6,0.4-1,1-1,1.8v2.5H0v6.5h16.6v2.5c0,0.7,0.4,1.4,1,1.8L27.7,63c0.3,0.2,0.7,0.3,1,0.3
		c0,0,0,0,0,0c0,0,0,0,0,0c0.4,0,0.7-0.1,1-0.3l10.1-5.8c0.6-0.4,1-1,1-1.8V43.8C40.8,43.2,40.5,42.6,40,42.2z"/>
	<path class="st1" d="M33.7,46.3C33.7,46.3,33.7,46.3,33.7,46.3C33.7,46.3,33.7,46.3,33.7,46.3l-4.6-2.6c-0.1-0.1-0.3-0.1-0.4-0.1
		c0,0,0,0,0,0v0c0,0,0,0,0,0c-0.2,0-0.3,0-0.4,0.1l-4.5,2.6c-0.3,0.2-0.5,0.5-0.5,0.8v5.1c0,0.3,0.2,0.6,0.5,0.8l4.5,2.6
		c0.1,0.1,0.3,0.1,0.4,0.1c0,0,0,0,0,0v0c0,0,0,0,0,0c0.2,0,0.3,0,0.4-0.1l4.5-2.6c0.3-0.2,0.5-0.5,0.5-0.8V47
		C34.1,46.7,34,46.5,33.7,46.3z"/>
	<path class="st1" d="M36.9,0h-6.6l0,28.3h21c-0.8-1.1-1.9-2-3.3-2.7c1.8-1.9,2.6-4.6,2.2-7.7c-0.2-1.7-0.6-3.1-1.4-4.4
		c-0.8-1.3-1.9-2.3-3.2-3.1c-1.2-0.7-2.6-1.2-4-1.6c-0.9-0.2-2-0.4-3.1-0.6l0-6.5C38.7,0.8,37.9,0,36.9,0z"/>
</g>
</svg>
