<?xml version="1.0" encoding="utf-8"?>
<!-- Generator: Adobe Illustrator 23.0.1, SVG Export Plug-In . SVG Version: 6.00 Build 0)  -->
<svg version="1.1" id="Layer_1" xmlns="http://www.w3.org/2000/svg" xmlns:xlink="http://www.w3.org/1999/xlink" x="0px" y="0px"
	 viewBox="0 0 72 52" style="enable-background:new 0 0 72 52;" xml:space="preserve">
<style type="text/css">
	.st0{fill:#705A9B;}
	.st1{fill:#9D85C1;}
	.st2{fill:#D3C1E7;}
	.st3{fill:#AE95CE;}
	.st4{fill:#EDE5F4;}
</style>
<g>
	<path class="st0" d="M38.7,44H3.4C1.5,44,0,42.5,0,40.7L0,9.7c0-1.8,1.5-3.4,3.4-3.4h35.4c1.8,0,3.4,1.5,3.4,3.4l0,30.9
		C42.1,42.5,40.6,44,38.7,44z"/>
	<path class="st1" d="M58.7,52H3.4C1.5,52,0,50.5,0,48.6l0-30.9c0-1.8,1.5-3.4,3.4-3.4h55.4c1.8,0,3.4,1.5,3.4,3.4l0,30.9
		C62.1,50.5,60.6,52,58.7,52z"/>
	<path class="st2" d="M71.7,27.5L63,4.9c-0.8-2.1-3.2-3.2-5.3-2.3L27.1,14.4h31.6c1.8,0,3.4,1.5,3.4,3.4v17.9l7.3-2.8
		C71.5,32,72.5,29.6,71.7,27.5z"/>
	<path class="st3" d="M47.5,1.8c-1.2-1.9-3.8-2.4-5.7-1.2L21.1,14.4h6l22.8-8.8L47.5,1.8z"/>
	<path class="st0" d="M62.1,26H44.7c-2.1,0-3.9,1.7-3.9,3.9v6.4c0,2.1,1.7,3.9,3.9,3.9h17.4V26z"/>
	<path class="st2" d="M47.3,35.6c1.5,0,2.7-1.2,2.7-2.6c0-1.4-1.2-2.6-2.7-2.6c-1.5,0-2.7,1.2-2.7,2.6
		C44.6,34.5,45.8,35.6,47.3,35.6z"/>
	<path class="st4" d="M25.1,23.5c-1.1-2.1-3.7-3-5.8-2c-1.9,0.9-2.7,3-2.3,4.9L11.3,30H0v2.5h11.7c0,0,0,0,0,0c0,0,0,0,0,0
		c0.1,0,0.3,0,0.4-0.1c0,0,0.1,0,0.1-0.1c0,0,0.1,0,0.1-0.1l5.9-3.7c1.3,1.2,3.2,1.6,4.9,0.7C25.3,28.3,26.1,25.7,25.1,23.5z"/>
	<path class="st2" d="M31.6,36.8c-1.1-2.2-3.8-3.1-6-2c-1.2,0.6-1.9,1.6-2.3,2.7H0V40h23.4c0.1,0.2,0.2,0.5,0.3,0.7
		c1.1,2.2,3.8,3.1,6,2C31.8,41.6,32.7,39,31.6,36.8z"/>
</g>
</svg>
