<?xml version="1.0" encoding="utf-8"?>
<!-- Generator: Adobe Illustrator 23.0.1, SVG Export Plug-In . SVG Version: 6.00 Build 0)  -->
<svg version="1.1" id="Layer_1" xmlns="http://www.w3.org/2000/svg" xmlns:xlink="http://www.w3.org/1999/xlink" x="0px" y="0px"
	 viewBox="0 0 89 100" style="enable-background:new 0 0 89 100;" xml:space="preserve">
<style type="text/css">
	.st0{fill:#D3C1E7;}
	.st1{fill:#836AAA;}
	.st2{fill:#705A9B;}
	.st3{fill:#AE95CE;}
	.st4{fill:#9D85C1;}
	.st5{fill:#EDE5F4;}
</style>
<g>
	<path class="st0" d="M86.2,22.8c-0.1-0.1-0.3-0.2-0.4-0.3c-0.1-0.1-0.3-0.2-0.4-0.3L48.3,1c-1.1-0.7-2.4-1-3.7-1c0,0,0,0,0,0v0
		c0,0,0,0,0,0c-1.3,0-2.6,0.3-3.7,1l-37,21.3c-2.3,1.3-3.7,3.8-3.7,6.5l0,42.5c0,2.7,1.4,5.1,3.7,6.5l37,21.3c1.2,0.7,2.4,1,3.7,1
		c0,0,0,0,0,0v0c0,0,0,0,0,0c1.3,0,2.6-0.3,3.7-1l37-21.3c2.3-1.3,3.7-3.8,3.7-6.5l0-42.5C89.1,26.4,88,24.2,86.2,22.8z"/>
	<path class="st1" d="M79.3,27.3c-0.1-0.1-0.2-0.2-0.3-0.2c-0.1-0.1-0.2-0.2-0.3-0.2L47.7,9.1c-1-0.6-2-0.8-3.1-0.8c0,0,0,0,0,0v0
		c0,0,0,0,0,0c-1.1,0-2.2,0.3-3.1,0.8L10.6,26.8c-1.9,1.1-3.1,3.2-3.1,5.4l0,35.5c0,2.2,1.2,4.3,3.1,5.4l30.9,17.8
		c1,0.6,2,0.8,3.1,0.8c0,0,0,0,0,0v0c0,0,0,0,0,0c1.1,0,2.2-0.3,3.1-0.8l30.9-17.8c1.9-1.1,3.1-3.2,3.1-5.4l0-35.5
		C81.8,30.3,80.8,28.5,79.3,27.3z"/>
	<path class="st2" d="M10.6,73.2l30.9,17.8c1,0.6,2,0.8,3.1,0.8c0,0,0,0,0,0v0c0,0,0,0,0,0c1.1,0,2.2-0.3,3.1-0.8l30.9-17.8
		c1.9-1.1,3.1-3.2,3.1-5.4V32.2c0-1-0.2-1.9-0.6-2.8L8.5,71.2C9,72,9.7,72.7,10.6,73.2z"/>
	<path class="st3" d="M89.1,64.4c-6.7-3.9-15.1-9-18.7-14.5l0,0c-1.4-2-2.5-4-4.3-6.8c-1-1.5-1.8-3.1-2.6-4.7
		c-0.7-1.4-1.1-3.3-2.1-4.5c-0.7-0.9-1.9-1.5-2.7-2.3c-3.4-3.1-7.7-6.7-8.8-11.4c-0.5-2.3-1.7-4.4-2-6.7c-0.1-1.2-0.1-2.7-1.5-3
		c-1.4-0.3-2.6,1.1-3.2,2.1c-2,3-2.1,7.3-2.1,10.8c0.1,3.1,3.4,8.4,1.8,11.1c-0.2,0.3-0.5,0.5-0.9,0.6c-3.1,1.5-5.7,3.6-8.7,5.1
		c-0.1,0-0.3,0.2-0.5,0.3c-0.4,0.3-0.7,0.5-1.1,0.8c-0.1,0-0.1,0.1-0.1,0.1c0,0-0.1,0.1-0.1,0.1c-0.3,0.3-0.6,0.6-0.8,0.8
		c-0.8,0.8-1.2,1.5-1.6,2.6c-0.6,1.7-0.8,3.6,0.2,5.2c1.2,2.1,0.8,3.2,0.8,5.6c0,2,1.3,3.8,1.6,5.8c0.2,1.3,0,2.6,0.2,3.9
		c0.4,2.1,1.7,3.9,2.2,5.9c0.5,2.1,1,3.3,3.2,3.9c0.8,0.2,2.9,0.5,5.1,0.5c1.5,0.1,3,0.7,5.6,1.3c1.3,0.3,3,1.3,7.2,2.1
		c3.1,0.6,6.4,3.6,8.9,5.3c1.4,1,3,1.9,4.6,2.9l16.9-9.7c2.3-1.3,3.7-3.8,3.7-6.5V64.4z"/>
	<path class="st4" d="M89.1,64.4c-2.6-1.5-5.5-3.2-8.2-5.1l-45.6,15c0.4,0.4,1,0.7,1.9,0.9c0.8,0.2,2.9,0.5,5.1,0.5
		c1.5,0.1,3,0.7,5.6,1.3c1.3,0.3,3,1.3,7.2,2.1c3.1,0.6,6.4,3.6,8.9,5.3c1.4,1,3,1.9,4.6,2.9l16.9-9.7c2.3-1.3,3.7-3.8,3.7-6.5V64.4
		z"/>
	<path class="st5" d="M89.1,64.4c-6.7-3.9-15.1-9-18.7-14.5l0,0c-1.4-2-2.5-4-4.3-6.8c-1-1.5-1.8-3.1-2.6-4.7
		c-0.7-1.4-1.1-3.3-2.1-4.5c-0.7-0.9-1.9-1.5-2.7-2.3c-3.4-3.1-7.7-6.7-8.8-11.4c-0.5-2.3-1.7-4.4-2-6.7c-0.1-1.2-0.1-2.7-1.5-3
		c-1.2-0.2-2.2,0.8-2.9,1.7l26.4,74.4l15.4-8.9c2.3-1.3,3.7-3.8,3.7-6.5V64.4z"/>
</g>
</svg>
