<?xml version="1.0" encoding="utf-8"?>
<!-- Generator: Adobe Illustrator 23.0.1, SVG Export Plug-In . SVG Version: 6.00 Build 0)  -->
<svg version="1.1" id="Layer_1" xmlns="http://www.w3.org/2000/svg" xmlns:xlink="http://www.w3.org/1999/xlink" x="0px" y="0px"
	 viewBox="0 0 72 68" style="enable-background:new 0 0 72 68;" xml:space="preserve">
<style type="text/css">
	.st0{fill:#AE95CE;}
	.st1{fill:#9D85C1;}
	.st2{fill:#D3C1E7;}
	.st3{fill:#836AAA;}
	.st4{fill:#EDE5F4;}
</style>
<g>
	<path class="st0" d="M31.6,15.4C25.1,21.9,20.8,32,18.1,40.7l2.7,2.6c0.8-1.5,1.7-2.9,2.8-4c4.8-4.8,14.3-5.5,14.4-5.5l0,0v0
		c0,0,0,0,0,0c0,0.1-0.7,9.5-5.5,14.3c-0.3,0.3-0.6,0.6-1,0.9c-0.9,0.7-1.9,1.4-3,1.9l2.7,2.7c8.7-2.7,18.9-7,25.5-13.5
		C70.1,26.7,72,0,72,0S45.2,1.9,31.6,15.4z"/>
	<path class="st1" d="M72,0c0,0-1.9,26.7-15.5,40.1C49.9,46.7,39.8,51,31.1,53.7l-6.5-6.5L72,0z"/>
	<path class="st2" d="M61,23.5c0,0,0-0.1,0-0.1c0,0,0-0.1,0-0.1l-2.4-8.8c-0.1-0.3-0.2-0.5-0.4-0.7c0,0,0,0,0,0l0,0c0,0,0,0,0,0
		c-0.2-0.2-0.4-0.3-0.7-0.4L48.6,11c-0.6-0.1-1.1,0-1.5,0.4l-6.4,6.4c-0.4,0.4-0.6,1-0.4,1.5l2.4,8.8c0.1,0.3,0.2,0.5,0.4,0.7
		c0,0,0,0,0,0l0,0c0,0,0,0,0,0c0.2,0.2,0.4,0.3,0.7,0.4l8.8,2.4c0.6,0.1,1.1,0,1.5-0.4l6.4-6.4C60.9,24.5,61.1,24,61,23.5z"/>
	<path class="st0" d="M57.3,22.7C57.3,22.7,57.3,22.7,57.3,22.7c0-0.1,0-0.1,0-0.1l-1.5-5.7c0-0.2-0.1-0.3-0.3-0.5c0,0,0,0,0,0l0,0
		c0,0,0,0,0,0c-0.1-0.1-0.3-0.2-0.5-0.3l-5.7-1.5c-0.4-0.1-0.7,0-1,0.3l-4.2,4.1c-0.3,0.3-0.4,0.6-0.3,1l1.5,5.7
		c0,0.2,0.1,0.3,0.3,0.5c0,0,0,0,0,0l0,0c0,0,0,0,0,0c0.1,0.1,0.3,0.2,0.5,0.3l5.7,1.5c0.4,0.1,0.7,0,1-0.3l4.2-4.1
		C57.2,23.4,57.4,23,57.3,22.7z"/>
	<path class="st0" d="M23.3,53c3.1-1,6.7-2.5,9.1-4.8c4.8-4.8,5.5-14.3,5.5-14.3L21,50.7L23.3,53z"/>
	<path class="st3" d="M25.2,23.9c-3.1,0.5-8.7,1.9-12.1,5.2c-2.3,2.3-3.9,5.9-4.8,9l4.6,4.6c1.7-0.5,3.5-1.2,5.1-2.1
		C19.8,35.3,22.1,29.3,25.2,23.9z"/>
	<path class="st3" d="M47.9,46.6c-5.4,3.1-11.4,5.4-16.9,7.1c0,0-1.6,3.4-2.1,5.1l4.6,4.6c3.1-1,6.7-2.5,9.1-4.8
		C46,55.2,47.4,49.7,47.9,46.6z"/>
	<path class="st2" d="M23.5,39.4c-2.3,2.3-3.9,5.9-4.8,9l2.3,2.3l16.9-16.8C37.9,33.9,28.3,34.6,23.5,39.4z"/>
	<path class="st3" d="M57.3,22.7C57.3,22.7,57.3,22.7,57.3,22.7c0-0.1,0-0.1,0-0.1l-1.5-5.7c0-0.2-0.1-0.3-0.3-0.5c0,0,0,0,0,0
		l-9.8,9.7c0,0,0,0,0,0c0.1,0.1,0.3,0.2,0.5,0.3l5.7,1.5c0.4,0.1,0.7,0,1-0.3l4.2-4.1C57.2,23.4,57.4,23,57.3,22.7z"/>
	<polygon class="st4" points="29.2,68 33.6,63.4 29,58.7 20.2,68 	"/>
	<polygon class="st4" points="9,68 23.3,53 18.7,48.4 0,68 	"/>
	<polygon class="st4" points="0,56.4 12.9,42.8 8.3,38.1 0,46.9 	"/>
</g>
</svg>
