<?xml version="1.0" encoding="utf-8"?>
<!-- Generator: Adobe Illustrator 23.0.1, SVG Export Plug-In . SVG Version: 6.00 Build 0)  -->
<svg version="1.1" id="Layer_1" xmlns="http://www.w3.org/2000/svg" xmlns:xlink="http://www.w3.org/1999/xlink" x="0px" y="0px"
	 viewBox="0 0 60 72" style="enable-background:new 0 0 60 72;" xml:space="preserve">
<style type="text/css">
	.st0{fill:#AE95CE;}
	.st1{fill:#D3C1E7;}
	.st2{fill:#836AAA;}
	.st3{fill:#9D85C1;}
	.st4{fill:#EDE5F4;}
</style>
<g>
	<path class="st0" d="M30,6.3h23.8l1.9,0c0.2,0,0.5,0,0.7,0.1c2.3,0.8,3.6,2.7,3.6,4.9l0,2.3c0,14.1,0,21.3-0.1,21.7
		c-1.7,24.8-29.3,36.4-29.5,36.6L30,72V6.3z"/>
	<path class="st1" d="M3.6,6.4c0.2-0.1,0.5-0.1,0.7-0.1l1.9,0H30V72l0.2-0.1L30,72l-0.4-0.2C29.3,71.7,1.7,59.5,0.1,35.2
		C0,34.8,0,27.4,0,13l0-1.7C0,9.1,1.3,7.2,3.6,6.4z"/>
	<path class="st2" d="M52,6.3V3.8C52,1.7,50.3,0,48.3,0H11.8C9.7,0,8,1.7,8,3.8v2.6H52z"/>
	<path class="st3" d="M30,14.4H8c0,6,0,18.9,0.1,20.5C9.2,49.8,23.7,59.5,30,63V14.4z"/>
	<path class="st2" d="M30,63C30,63,30,63,30,63c6.3-3.3,20.8-12.8,21.9-28.1c0-1.4,0-12.2,0.1-20.5H30V63z"/>
	<path class="st4" d="M36,28.7c0-3.3-2.7-6-6-6s-6,2.7-6,6c0,2.5,1.5,4.6,3.6,5.5l-3.6,12.6H36l-3.6-12.6C34.5,33.3,36,31.2,36,28.7
		z"/>
</g>
</svg>
